<svg xmlns="http://www.w3.org/2000/svg" id="login" viewBox="3.25 3.25 17.5 17.5">
  <path d="m15.53,11.47l-3-3c-.29-.29-.77-.29-1.06,0s-.29.77,0,1.06l1.72,1.72H4c-.41,0-.75.34-.75.75s.34.75.75.75h9.19l-1.72,1.72c-.29.29-.29.77,0,1.06.15.15.34.22.53.22s.38-.07.53-.22l3-3c.29-.29.29-.77,0-1.06Z"/>
  <path d="m18,3.25h-3c-.41,0-.75.34-.75.75s.34.75.75.75h3c.69,0,1.25.56,1.25,1.25v12c0,.69-.56,1.25-1.25,1.25h-3c-.41,0-.75.34-.75.75s.34.75.75.75h3c1.52,0,2.75-1.23,2.75-2.75V6c0-1.52-1.23-2.75-2.75-2.75Z"/>
</svg>